# xmcd CD database file
# Generated: mer jan 7 10:36:28 2004 by KSCD
# 
# Track frame offsets:
#       182
#       12450
#       18162
#       31017
#       40790
#       51957
#       63657
#       73655
#       82897
#       100060
#       108532
#       124410
#       141365
#       154442
#       165202
#       175090
#       195070
#       212710
#       228850
#       244662
#       266475
#       288750
#
# Disc length: 3854 seconds
#
# Revision: 1
# Processed by: cddbd v1.4PL0 Copyright (c) Steve Scherf et al.
# Submitted via: Kscd 1.3.3
#
DISCID=220f0c16
DTITLE=Nitty Gritty Dirt Band - Will the Circle be Unbroken [2
DYEAR=1900
DGENRE=
TTITLE0=Lonesome Fiddle Blues
TTITLE1=Cannonball Rag
TTITLE2=Avalanche
TTITLE3=Flint Hill Special
TTITLE4=Togary Mountain
TTITLE5=Earl's Breakdown
TTITLE6=Orange Blossom Special
TTITLE7=Wabash Cannonball
TTITLE8=Lost Highway
TTITLE9=Doc Watson and Merle Travis: First Meeting (Dialogue)
TTITLE10=Way Downtown
TTITLE11=Down Yonder
TTITLE12=Pins And Needles (In My Heart)
TTITLE13=Honky Tonk Blues
TTITLE14=Sailin' On To Hawaii
TTITLE15=I'm Thinking Tonight Of My Blue Eyes
TTITLE16=I Am A Pilgrim
TTITLE17=Wildwood Flower
TTITLE18=Soldier's Joy
TTITLE19=Will The Circle Be Unbroken
TTITLE20=Both Sides Now
TTITLE21=data
EXTD=
EXTT0=
EXTT1=
EXTT2=
EXTT3=
EXTT4=
EXTT5=
EXTT6=
EXTT7=
EXTT8=
EXTT9=
EXTT10=
EXTT11=
EXTT12=
EXTT13=
EXTT14=
EXTT15=
EXTT16=
EXTT17=
EXTT18=
EXTT19=
EXTT20=
EXTT21=
PLAYORDER=
